<svg width="14" height="13" viewBox="0 0 14 13" fill="none" xmlns="http://www.w3.org/2000/svg">
<path d="M13.765 2.075C13.689 2.03112 13.6028 2.00801 13.515 2.00801C13.4272 2.00801 13.341 2.03112 13.265 2.075L9 4.19V2.5C8.99974 2.41477 8.9777 2.33102 8.93597 2.2567C8.89424 2.18238 8.8342 2.11997 8.76156 2.07538C8.68892 2.0308 8.60609 2.00552 8.52093 2.00195C8.43577 1.99838 8.35111 2.01665 8.275 2.055L4 4.19V0.5C4 0.367392 3.94732 0.240215 3.85355 0.146447C3.75979 0.0526784 3.63261 0 3.5 0H0.5C0.367392 0 0.240215 0.0526784 0.146447 0.146447C0.0526784 0.240215 0 0.367392 0 0.5V13H14V2.5C14.0002 2.41503 13.9787 2.33141 13.9376 2.25705C13.8964 2.18269 13.8371 2.12004 13.765 2.075ZM10 12H8V8.5H10V12ZM13 12H11V8C11 7.86739 10.9473 7.74021 10.8536 7.64645C10.7598 7.55268 10.6326 7.5 10.5 7.5H7.5C7.36739 7.5 7.24021 7.55268 7.14645 7.64645C7.05268 7.74021 7 7.86739 7 8V12H1V1H3V5.81L8 3.31V5.81L13 3.31V12Z" fill="#030030" fill-opacity="0.8"/>
</svg>
