<svg width="536" height="432" viewBox="0 0 536 432" fill="none" xmlns="http://www.w3.org/2000/svg">
<path d="M535.851 382.805H0V383.073H535.851V382.805Z" fill="#EBEBEB"/>
<path d="M119.666 391.796H84.1715V392.064H119.666V391.796Z" fill="#EBEBEB"/>
<path d="M175.223 399.523H142.89V399.791H175.223V399.523Z" fill="#EBEBEB"/>
<path d="M101.919 401.742H60.9263V402.01H101.919V401.742Z" fill="#EBEBEB"/>
<path d="M482.159 401.163H465.119V401.431H482.159V401.163Z" fill="#EBEBEB"/>
<path d="M461.679 401.163H419.539V401.431H461.679V401.163Z" fill="#EBEBEB"/>
<path d="M300.43 391.657H267.926V391.925H300.43V391.657Z" fill="#EBEBEB"/>
<path d="M382.351 391.657H305.082V391.925H382.351V391.657Z" fill="#EBEBEB"/>
<path d="M253.993 335.007H47.0584C45.4373 335.004 43.8836 334.358 42.7383 333.211C41.593 332.063 40.9497 330.508 40.9497 328.887V37.9952C40.9638 36.3834 41.6133 34.8422 42.7571 33.7065C43.9008 32.5707 45.4465 31.9321 47.0584 31.9294H253.993C255.616 31.9294 257.173 32.5741 258.321 33.7217C259.468 34.8693 260.113 36.4258 260.113 38.0488V328.887C260.113 330.51 259.468 332.067 258.321 333.214C257.173 334.362 255.616 335.007 253.993 335.007ZM47.0584 32.1437C45.5084 32.1465 44.0228 32.7643 42.9277 33.8613C41.8327 34.9584 41.2176 36.4451 41.2176 37.9952V328.887C41.2176 330.437 41.8327 331.924 42.9277 333.021C44.0228 334.118 45.5084 334.736 47.0584 334.739H253.993C255.544 334.736 257.031 334.119 258.128 333.022C259.225 331.925 259.842 330.438 259.845 328.887V37.9952C259.842 36.4441 259.225 34.9574 258.128 33.8607C257.031 32.7639 255.544 32.1465 253.993 32.1437H47.0584Z" fill="#EBEBEB"/>
<path d="M485.813 335.007H278.868C277.246 335.004 275.691 334.358 274.544 333.211C273.397 332.064 272.751 330.509 272.748 328.887V37.9952C272.765 36.3824 273.417 34.8412 274.563 33.7058C275.708 32.5703 277.255 31.9321 278.868 31.9294H485.813C487.423 31.9349 488.966 32.5748 490.108 33.7102C491.249 34.8457 491.897 36.3852 491.911 37.9952V328.887C491.911 330.507 491.27 332.06 490.127 333.207C488.984 334.354 487.433 335.001 485.813 335.007ZM278.868 32.1437C277.317 32.1465 275.83 32.7639 274.733 33.8607C273.636 34.9574 273.019 36.4441 273.016 37.9952V328.887C273.019 330.438 273.636 331.925 274.733 333.022C275.83 334.119 277.317 334.736 278.868 334.739H485.813C487.365 334.736 488.851 334.119 489.948 333.022C491.045 331.925 491.662 330.438 491.665 328.887V37.9952C491.662 36.4441 491.045 34.9574 489.948 33.8607C488.851 32.7639 487.365 32.1465 485.813 32.1437H278.868Z" fill="#EBEBEB"/>
<path d="M188.266 382.805H183.979C184.184 378.149 184.725 373.514 185.597 368.937C189.005 347.599 194.171 315.352 167.507 278.603C151.732 256.858 135.42 224.75 147.338 195.321C158.29 168.271 190.924 149.817 244.348 140.429C320.825 127 366.522 104.28 376.425 74.7975C382.555 56.5785 374.849 35.6589 353.522 12.7137L356.663 9.79871C379.168 33.9763 387.153 56.3106 380.487 76.1585C370.037 107.238 323.215 130.976 245.077 144.747C193.217 153.857 161.666 171.444 151.314 197.025C140.136 224.632 155.836 255.315 170.979 276.192C198.683 314.387 193.142 349.014 189.831 369.708C189.001 374.032 188.479 378.408 188.266 382.805Z" fill="#F5F5F5"/>
<path d="M154.807 185.944C167.014 167.082 166.896 144.447 155.879 127.697C128.486 152.164 154.807 185.944 154.807 185.944Z" fill="#F5F5F5"/>
<path d="M243.18 142.968C269.501 132.401 297.515 138.017 315.584 155.829C278.643 183.736 243.18 142.968 243.18 142.968Z" fill="#F5F5F5"/>
<path d="M426.291 44.5326C416.839 64.7985 397.687 76.6837 377.711 76.18C383.895 40.1922 426.291 44.5326 426.291 44.5326Z" fill="#F5F5F5"/>
<path d="M178.428 292.064C168.161 278.871 166.8 262.056 173.927 248.949C195.768 265.325 178.428 292.064 178.428 292.064Z" fill="#F5F5F5"/>
<path d="M365.89 23.6129C349.171 23.8487 334.939 14.825 328.755 1.22508C354.991 -6.34114 365.89 23.6129 365.89 23.6129Z" fill="#F5F5F5"/>
<path d="M445.71 382.805H442.838C442.838 372.484 434.104 366.429 424.855 360.02C412.606 351.511 398.673 341.855 409.037 320.571C414.052 310.293 422.283 302.352 430.246 294.668C450.094 275.506 467.241 258.959 430.46 212.983C397.184 171.379 384.109 138.649 392.65 118.33C398.105 105.362 412.059 97.6676 434.125 95.4599L434.404 98.332C413.474 100.475 400.324 107.527 395.308 119.445C387.195 138.735 400.131 170.458 432.711 211.182C471.131 259.216 452.237 277.446 432.239 296.747C424.459 304.249 416.41 312.019 411.63 321.836C402.339 340.901 414.074 349.035 426.495 357.652C435.947 364.157 445.71 370.984 445.71 382.805Z" fill="#F5F5F5"/>
<path d="M449.043 275.827C451.273 260.899 461.379 249.549 474.389 246.023C477.304 270.49 449.043 275.827 449.043 275.827Z" fill="#F5F5F5"/>
<path d="M432.164 212.972C423.591 195.964 406.979 186.362 389.993 187.251C396.176 217.763 432.164 212.972 432.164 212.972Z" fill="#F5F5F5"/>
<path d="M383.594 82.0743C379.361 96.4887 383.744 111.01 394.022 119.584C406.883 98.7178 383.594 82.0743 383.594 82.0743Z" fill="#F5F5F5"/>
<path d="M409.208 323.979C415.22 314.494 415.06 303.188 409.455 294.861C395.908 307.218 409.208 323.979 409.208 323.979Z" fill="#F5F5F5"/>
<path d="M423.323 98.3749C431.639 105.877 442.817 107.688 451.969 103.573C442.109 88.0973 423.323 98.3749 423.323 98.3749Z" fill="#F5F5F5"/>
<path d="M257.67 382.805H254.572C254.572 371.691 245.163 365.164 235.196 358.252C221.971 349.089 206.989 338.693 218.167 315.759C223.525 304.699 232.42 296.136 240.994 287.895C262.428 267.254 280.861 249.421 241.24 199.897C205.381 155.079 191.299 119.82 200.516 97.9248C206.389 83.9927 221.425 75.6762 245.195 73.2756L245.495 76.3621C222.989 78.6127 208.778 86.2754 203.377 99.1037C194.643 119.884 208.575 154.061 243.673 197.936C285.062 249.678 264.711 269.311 243.159 290.102C234.778 298.194 226.119 306.553 220.964 317.131C210.954 337.675 223.589 346.442 236.975 355.712C247.145 362.764 257.67 370.062 257.67 382.805Z" fill="#F5F5F5"/>
<path d="M261.26 267.565C263.65 251.489 274.538 239.261 288.556 235.414C291.696 261.81 261.26 267.565 261.26 267.565Z" fill="#F5F5F5"/>
<path d="M243.073 199.854C233.835 181.528 215.937 171.186 197.633 172.183C204.309 205.009 243.073 199.854 243.073 199.854Z" fill="#F5F5F5"/>
<path d="M190.763 58.8398C186.208 74.3688 190.924 89.9192 202.005 99.2644C215.841 76.7694 190.763 58.8398 190.763 58.8398Z" fill="#F5F5F5"/>
<path d="M218.349 319.435C224.779 309.222 224.64 297.036 218.606 288.066C204.009 301.377 218.349 319.435 218.349 319.435Z" fill="#F5F5F5"/>
<path d="M233.545 76.3728C242.505 84.4964 254.54 86.404 264.4 81.9778C253.779 65.3236 233.545 76.3728 233.545 76.3728Z" fill="#F5F5F5"/>
<path d="M88.1261 98.7286L107.717 118.319C107.717 118.319 103.58 145.83 95.0385 137.61C86.4971 129.39 88.319 124.417 88.319 124.417C88.319 124.417 71.6754 133.741 66.3705 114.729C61.0656 95.7171 88.1261 98.7286 88.1261 98.7286Z" fill="#EBEBEB"/>
<path d="M88.1261 98.7286L107.717 118.319C107.717 118.319 135.238 114.183 127.007 105.641C118.777 97.0996 113.826 98.9215 113.826 98.9215C113.826 98.9215 123.096 82.2994 104.127 76.9409C85.1575 71.5824 88.1261 98.7286 88.1261 98.7286Z" fill="#FAFAFA"/>
<path d="M86.8508 100.54C88.5554 100.54 89.9373 99.1579 89.9373 97.4533C89.9373 95.7486 88.5554 94.3668 86.8508 94.3668C85.1462 94.3668 83.7643 95.7486 83.7643 97.4533C83.7643 99.1579 85.1462 100.54 86.8508 100.54Z" fill="#E0E0E0"/>
<path d="M109.056 119.648C108.857 119.849 108.62 120.009 108.359 120.117C108.098 120.226 107.818 120.282 107.535 120.282C107.252 120.282 106.972 120.226 106.71 120.117C106.449 120.009 106.212 119.849 106.013 119.648L86.4114 98.7929L88.2011 97.0031L109.003 116.594C109.209 116.79 109.374 117.025 109.488 117.285C109.603 117.545 109.664 117.826 109.669 118.11C109.674 118.394 109.623 118.676 109.517 118.941C109.412 119.205 109.256 119.445 109.056 119.648Z" fill="#E0E0E0"/>
<path d="M458.689 149.495L449.043 167.843C449.043 167.843 428.456 170.961 432.421 163.041C436.387 155.122 440.373 155.325 440.373 155.325C440.373 155.325 430.085 145.455 442.517 137.471C454.948 129.486 458.689 149.495 458.689 149.495Z" fill="#FAFAFA"/>
<path d="M458.689 149.495L449.043 167.843C449.043 167.843 458.089 186.597 462.386 178.86C466.684 171.122 464.272 167.95 464.272 167.95C464.272 167.95 478.204 170.876 477.829 156.161C477.454 141.447 458.689 149.495 458.689 149.495Z" fill="#F0F0F0"/>
<path d="M461.379 149.388C461.164 149.793 460.835 150.125 460.432 150.342C460.03 150.56 459.571 150.653 459.115 150.61C458.66 150.567 458.227 150.39 457.872 150.101C457.517 149.812 457.255 149.425 457.12 148.987C456.985 148.55 456.983 148.082 457.114 147.643C457.245 147.205 457.503 146.815 457.856 146.523C458.208 146.231 458.639 146.05 459.095 146.003C459.55 145.956 460.009 146.045 460.414 146.259C460.684 146.4 460.923 146.593 461.118 146.827C461.313 147.061 461.459 147.331 461.549 147.622C461.639 147.913 461.67 148.219 461.64 148.522C461.611 148.825 461.522 149.119 461.379 149.388Z" fill="#E0E0E0"/>
<path d="M448.368 169.107C447.999 168.908 447.725 168.57 447.604 168.168C447.484 167.767 447.527 167.334 447.725 166.964L458.281 148.348L459.953 149.238L450.533 168.443C450.436 168.63 450.303 168.796 450.141 168.931C449.979 169.066 449.792 169.168 449.59 169.229C449.389 169.291 449.177 169.312 448.967 169.291C448.757 169.27 448.554 169.208 448.368 169.107Z" fill="#E0E0E0"/>
<path d="M179.907 24.0845L173.134 36.9449C173.134 36.9449 158.73 39.0883 161.506 33.5905C164.281 28.0927 167.068 28.232 167.068 28.232C167.068 28.232 159.866 21.3302 168.536 15.7466C177.206 10.1631 179.907 24.0845 179.907 24.0845Z" fill="#FAFAFA"/>
<path d="M179.907 24.0845L173.134 36.9449C173.134 36.9449 179.457 50.0733 182.468 44.6612C185.48 39.2491 183.786 37.02 183.786 37.02C183.786 37.02 193.549 39.0669 193.271 28.7571C192.992 18.4474 179.907 24.0845 179.907 24.0845Z" fill="#F0F0F0"/>
<path d="M181.782 23.9988C181.638 24.2874 181.412 24.5265 181.131 24.6854C180.85 24.8442 180.528 24.9156 180.207 24.8902C179.885 24.8649 179.579 24.7441 179.326 24.5433C179.074 24.3425 178.887 24.0708 178.79 23.7632C178.693 23.4555 178.691 23.126 178.782 22.8168C178.874 22.5075 179.056 22.2328 179.305 22.0278C179.554 21.8227 179.859 21.6968 180.18 21.666C180.501 21.6353 180.824 21.7013 181.107 21.8554C181.475 22.0556 181.751 22.391 181.877 22.7908C182.003 23.1906 181.969 23.6236 181.782 23.9988Z" fill="#E0E0E0"/>
<path d="M172.673 37.7808C172.532 37.7166 172.407 37.6227 172.306 37.5056C172.205 37.3884 172.13 37.2508 172.088 37.1021C172.045 36.9534 172.035 36.7973 172.058 36.6443C172.081 36.4914 172.138 36.3453 172.223 36.2162L179.607 23.195L180.775 23.8058L174.195 37.2879C174.134 37.4261 174.044 37.5499 173.932 37.6511C173.82 37.7524 173.688 37.8288 173.544 37.8753C173.4 37.9219 173.249 37.9375 173.098 37.9212C172.948 37.905 172.803 37.8571 172.673 37.7808Z" fill="#E0E0E0"/>
<path d="M267.926 431.203C382.686 431.203 475.718 425.771 475.718 419.071C475.718 412.371 382.686 406.939 267.926 406.939C153.165 406.939 60.1332 412.371 60.1332 419.071C60.1332 425.771 153.165 431.203 267.926 431.203Z" fill="#F5F5F5"/>
<path d="M397.998 170.533C426.988 95.0741 357.767 25.317 268.547 50.3841C228.98 61.4976 213.708 99.6824 204.309 141.286C198.672 151.939 187.044 171.047 170.787 183.157C169.643 184.007 168.705 185.105 168.045 186.368C167.385 187.631 167.02 189.027 166.975 190.451C166.931 191.876 167.209 193.292 167.79 194.594C168.37 195.895 169.237 197.049 170.326 197.968C177.41 203.927 186.241 206.21 191.524 207.067C190.077 213.765 188.513 220.185 186.723 226.197C175.116 265.314 208.575 285.441 246.309 289.245C248.702 301.73 249.402 314.48 248.389 327.151C247.092 343.848 262.321 357.062 278.75 353.751L352.697 338.822C358.812 337.594 364.26 334.157 368.002 329.168C371.744 324.179 373.518 317.986 372.985 311.772C370.368 279.723 370.311 247.517 372.813 215.458C381.376 205.342 389.714 192.063 397.998 170.533Z" fill="#407BFF"/>
<path opacity="0.6" d="M397.998 170.533C426.988 95.0741 357.767 25.317 268.547 50.3841C228.98 61.4976 213.708 99.6824 204.309 141.286C198.672 151.939 187.044 171.047 170.787 183.157C169.643 184.007 168.705 185.105 168.045 186.368C167.385 187.631 167.02 189.027 166.975 190.451C166.931 191.876 167.209 193.292 167.79 194.594C168.37 195.895 169.237 197.049 170.326 197.968C177.41 203.927 186.241 206.21 191.524 207.067C190.077 213.765 188.513 220.185 186.723 226.197C175.116 265.314 208.575 285.441 246.309 289.245C248.702 301.73 249.402 314.48 248.389 327.151C247.092 343.848 262.321 357.062 278.75 353.751L352.697 338.822C358.812 337.594 364.26 334.157 368.002 329.168C371.744 324.179 373.518 317.986 372.985 311.772C370.368 279.723 370.311 247.517 372.813 215.458C381.376 205.342 389.714 192.063 397.998 170.533Z" fill="white"/>
<path d="M405.189 417.742H222.55C220.885 417.743 219.243 417.353 217.756 416.604C216.269 415.855 214.978 414.768 213.987 413.43C212.996 412.092 212.332 410.54 212.049 408.899C211.767 407.258 211.872 405.574 212.358 403.982L233.321 335.393C233.813 333.795 234.672 332.336 235.83 331.13C236.987 329.924 238.411 329.006 239.986 328.448L374.635 281.293C376.049 280.791 377.552 280.593 379.047 280.713C380.542 280.832 381.995 281.266 383.311 281.987C384.626 282.707 385.775 283.698 386.681 284.893C387.587 286.089 388.229 287.462 388.567 288.924L415.606 404.667C415.972 406.234 415.978 407.863 415.625 409.432C415.271 411.001 414.567 412.47 413.564 413.728C412.562 414.986 411.288 416 409.837 416.696C408.387 417.391 406.798 417.749 405.189 417.742Z" fill="#407BFF"/>
<path d="M287.945 71.443C285.795 69.5137 283.165 68.1992 280.332 67.6378C277.499 67.0764 274.566 67.2889 271.843 68.2528C269.12 69.2168 266.707 70.8966 264.858 73.1157C263.009 75.3348 261.792 78.0111 261.335 80.8633C258.261 79.6519 254.845 79.6407 251.763 80.8319C248.682 82.0231 246.161 84.3297 244.702 87.2935L259.052 93.3915C257.823 94.3501 256.867 95.6129 256.276 97.055C255.685 98.497 255.482 100.068 255.685 101.613C255.888 103.158 256.491 104.623 257.434 105.864C258.378 107.104 259.629 108.076 261.063 108.685C262.498 109.293 264.066 109.517 265.614 109.333C267.161 109.149 268.634 108.564 269.886 107.636C271.137 106.708 272.125 105.469 272.752 104.042C273.378 102.615 273.62 101.05 273.456 99.5002L289.22 106.198L295.919 90.4336C294.135 90.6184 292.337 90.2624 290.758 89.4119C289.18 88.5614 287.893 87.2557 287.066 85.6645C286.892 85.3178 286.742 84.9598 286.616 84.5928C286.498 84.2713 286.402 83.9498 286.316 83.6176C286.15 82.9406 286.063 82.2464 286.059 81.5492C286.059 81.5492 286.059 81.5492 286.059 81.4742C286.067 80.2772 286.311 79.0935 286.777 77.9911C287.384 76.5586 288.355 75.3094 289.593 74.3671C290.832 73.4248 292.294 72.8221 293.837 72.6186C295.38 72.415 296.949 72.6178 298.389 73.2067C299.829 73.7956 301.091 74.7503 302.049 75.9763L306.443 65.6344C303.143 64.6265 299.616 64.6332 296.319 65.6537C293.023 66.6741 290.109 68.6612 287.956 71.3573L287.945 71.443Z" fill="white"/>
<path opacity="0.1" d="M279.961 139.1C281.487 139.75 283.166 139.958 284.805 139.7C287.031 139.352 289.043 138.175 290.438 136.406C291.833 134.637 292.507 132.405 292.325 130.159C292.144 127.914 291.119 125.82 289.458 124.298C287.797 122.775 285.622 121.938 283.369 121.952C283.09 121.936 282.811 121.936 282.533 121.952L289.22 106.188L273.456 99.4895C273.62 100.997 273.395 102.52 272.802 103.916C272.27 105.175 271.457 106.296 270.425 107.192C269.393 108.088 268.169 108.736 266.848 109.086C265.526 109.436 264.142 109.478 262.802 109.21C261.461 108.942 260.2 108.37 259.115 107.539C258.03 106.707 257.15 105.638 256.542 104.414C255.934 103.19 255.615 101.842 255.609 100.475C255.603 99.1084 255.91 97.7582 256.507 96.5284C257.104 95.2986 257.974 94.2218 259.052 93.3808L244.702 87.2828C243.491 89.7172 243.064 92.4673 243.48 95.1543C243.897 97.8413 245.136 100.333 247.027 102.287C244.523 102.926 242.209 104.161 240.283 105.885C238.357 107.609 236.875 109.773 235.963 112.192C235.052 114.611 234.737 117.214 235.045 119.781C235.354 122.347 236.277 124.802 237.736 126.936L237.972 127.247C239.486 129.327 241.473 131.016 243.769 132.176C250.489 136.26 261.206 139.678 273.777 142.443L276.392 136.302C277.318 137.529 278.548 138.493 279.961 139.1Z" fill="black"/>
<path d="M352.397 96.2315C353.806 96.828 355.038 97.7756 355.976 98.9839C356.914 100.192 357.527 101.621 357.756 103.133C357.819 103.552 357.854 103.974 357.863 104.398V104.484C357.858 106.343 357.273 108.155 356.191 109.667C355.109 111.179 353.582 112.316 351.824 112.921C350.066 113.526 348.162 113.567 346.379 113.041C344.596 112.514 343.021 111.445 341.873 109.981L335.186 125.735L350.951 132.423C349.722 133.381 348.765 134.643 348.174 136.085C347.584 137.527 347.379 139.097 347.582 140.642C347.784 142.187 348.387 143.652 349.329 144.892C350.272 146.133 351.522 147.106 352.955 147.715C354.389 148.324 355.957 148.548 357.505 148.366C359.052 148.183 360.524 147.599 361.777 146.673C363.029 145.746 364.018 144.509 364.646 143.083C365.273 141.657 365.517 140.092 365.354 138.542L379.811 144.683C380.969 141.444 380.817 137.882 379.388 134.754C377.959 131.625 375.365 129.178 372.16 127.932C373.752 125.523 374.666 122.728 374.805 119.843C374.945 116.958 374.304 114.089 372.951 111.537C371.598 108.985 369.582 106.845 367.115 105.342C364.649 103.838 361.823 103.027 358.935 102.994C359.112 100.415 358.706 97.8286 357.747 95.4278C356.788 93.027 355.3 90.8731 353.394 89.1261C352.765 88.5564 352.095 88.0334 351.39 87.5614L347.993 95.567C349.493 95.4099 351.01 95.6386 352.397 96.2315Z" fill="white"/>
<path opacity="0.1" d="M298.491 73.34C296.308 72.4153 293.847 72.3949 291.649 73.283C289.45 74.1711 287.694 75.8953 286.766 78.0769C286.3 79.1793 286.056 80.3629 286.048 81.5599C286.048 81.5599 286.048 81.5599 286.048 81.6349C286.053 82.3321 286.139 83.0263 286.306 83.7033C286.391 84.0355 286.488 84.3571 286.606 84.6786C286.731 85.0455 286.882 85.4035 287.056 85.7503C287.883 87.3415 289.169 88.6472 290.748 89.4977C292.326 90.3482 294.124 90.7042 295.908 90.5193L289.21 106.284L304.964 112.982C304.884 112.27 304.884 111.551 304.964 110.839C304.959 110.814 304.959 110.789 304.964 110.764C304.964 110.764 304.964 110.667 304.964 110.624C305.151 109.46 305.567 108.343 306.189 107.341C306.81 106.338 307.624 105.468 308.584 104.783C309.544 104.097 310.631 103.608 311.781 103.345C312.931 103.083 314.122 103.051 315.284 103.251C315.97 103.361 316.64 103.556 317.278 103.83C318.364 104.279 319.35 104.939 320.181 105.77C321.012 106.6 321.672 107.587 322.122 108.673C322.571 109.758 322.803 110.922 322.803 112.097C322.803 113.273 322.572 114.436 322.122 115.522C321.675 116.576 321.027 117.534 320.214 118.341C319.956 118.598 319.684 118.841 319.4 119.069L335.164 125.757L341.852 110.003C343 111.466 344.574 112.535 346.358 113.062C348.141 113.589 350.044 113.547 351.803 112.942C353.561 112.338 355.088 111.2 356.17 109.688C357.252 108.176 357.836 106.365 357.842 104.505V104.419C357.833 103.996 357.797 103.574 357.735 103.155C357.386 100.888 356.177 98.8423 354.358 97.4448C352.539 96.0473 350.252 95.4054 347.971 95.6528L351.369 87.6472C348.885 85.9606 346.003 84.9554 343.009 84.7321C342.323 81.9074 340.999 79.277 339.14 77.0422C337.281 74.8073 334.936 73.0272 332.283 71.8379C329.63 70.6486 326.741 70.0817 323.836 70.1804C320.93 70.2791 318.086 71.0409 315.52 72.4076C313.312 69.2521 310.114 66.9248 306.432 65.7952L302.038 76.1371C301.115 74.9163 299.893 73.9532 298.491 73.34Z" fill="black"/>
<path opacity="0.1" d="M364.668 142.979C364.136 144.239 363.322 145.359 362.289 146.255C361.256 147.151 360.032 147.799 358.71 148.148C357.388 148.497 356.004 148.538 354.663 148.269C353.323 147.999 352.062 147.427 350.977 146.594C349.892 145.762 349.013 144.692 348.406 143.466C347.799 142.241 347.482 140.893 347.477 139.526C347.472 138.158 347.781 136.808 348.379 135.579C348.978 134.349 349.85 133.273 350.929 132.434L335.164 125.746L328.466 141.511C328.295 141.286 328.091 141.082 327.898 140.868C327.062 139.973 326.047 139.265 324.919 138.789C322.807 137.894 320.433 137.845 318.286 138.65C316.139 139.456 314.383 141.055 313.38 143.117C312.378 145.18 312.205 147.548 312.899 149.734C313.592 151.92 315.098 153.757 317.106 154.864C317.363 155.004 317.642 155.143 317.921 155.261C319.316 155.852 320.839 156.08 322.347 155.925L319.871 161.745C323.595 162.574 327.496 161.912 330.738 159.901C331.415 159.479 332.056 159.002 332.657 158.476C333.091 160.732 333.934 162.889 335.143 164.842C337.418 168.519 340.866 171.322 344.931 172.797C348.996 174.272 353.44 174.333 357.543 172.969C361.647 171.606 365.171 168.898 367.545 165.284C369.919 161.67 371.005 157.361 370.627 153.053C372.722 152.518 374.654 151.475 376.252 150.018C377.85 148.56 379.065 146.732 379.79 144.694L365.333 138.553C365.488 140.061 365.259 141.583 364.668 142.979Z" fill="black"/>
<path d="M94.4491 303.07L94.6313 300.412C94.68 299.956 94.6133 299.496 94.4372 299.072C94.2612 298.649 93.9815 298.277 93.6239 297.99L90.4088 295.6C89.7277 295.128 88.9307 294.85 88.1035 294.797C87.2763 294.745 86.4504 294.918 85.7148 295.3L84.6431 295.772C84.0643 300.219 86.3685 304.967 86.3685 304.967L86.8829 306.424C86.9724 306.717 87.1289 306.985 87.3401 307.207C87.5512 307.429 87.8111 307.599 88.0991 307.703C88.3872 307.807 88.6956 307.842 88.9997 307.806C89.3039 307.771 89.5955 307.664 89.8515 307.496L92.6808 305.932C93.1826 305.63 93.605 305.213 93.9126 304.716C94.2203 304.218 94.4042 303.654 94.4491 303.07Z" fill="#B55B52"/>
<path d="M89.7122 293.425L91.3626 294.764C88.696 297.09 85.9016 299.266 82.9926 301.28C82.3521 300.654 81.668 300.074 80.9457 299.544L89.7122 293.425Z" fill="#263238"/>
<path d="M96.0032 249.892C95.3923 250.675 94.6314 251.725 93.9669 252.679C93.3025 253.632 92.5951 254.64 91.9307 255.626C90.6125 257.619 89.3372 259.634 88.169 261.649C87.0244 263.613 85.9799 265.634 85.0396 267.704C84.222 269.422 83.5758 271.217 83.1106 273.062L83.207 271.219C83.1955 271.801 83.264 272.381 83.4106 272.945C83.6095 273.818 83.8563 274.681 84.1501 275.527C84.829 277.495 85.6088 279.427 86.4864 281.315C87.3867 283.286 88.3941 285.269 89.4443 287.241C90.4946 289.213 91.5877 291.228 92.6594 293.018L79.5847 301.645C78.0736 299.501 76.7661 297.454 75.4372 295.3C74.1083 293.146 72.8544 291.013 71.6326 288.741C70.365 286.404 69.2169 284.004 68.1925 281.55C67.6673 280.254 67.1208 278.903 66.7135 277.403C66.1941 275.688 65.8529 273.925 65.6954 272.141L65.6311 271.391L65.7919 270.319C66.2871 267.12 67.1243 263.983 68.2889 260.963C69.3247 258.24 70.4979 255.572 71.8041 252.968C73.0366 250.449 74.344 248.017 75.7051 245.638C76.3803 244.448 77.0769 243.258 77.8485 242.09C78.6201 240.922 79.2524 239.807 80.1205 238.5L96.0032 249.892Z" fill="#407BFF"/>
<path opacity="0.7" d="M96.0032 249.892C95.3923 250.675 94.6314 251.725 93.9669 252.679C93.3025 253.632 92.5951 254.64 91.9307 255.626C90.6125 257.619 89.3372 259.634 88.169 261.649C87.0244 263.613 85.9799 265.634 85.0396 267.704C84.222 269.422 83.5758 271.217 83.1106 273.062L83.207 271.219C83.1955 271.801 83.264 272.381 83.4106 272.945C83.6095 273.818 83.8563 274.681 84.1501 275.527C84.829 277.495 85.6088 279.427 86.4864 281.315C87.3867 283.286 88.3941 285.269 89.4443 287.241C90.4946 289.213 91.5877 291.228 92.6594 293.018L79.5847 301.645C78.0736 299.501 76.7661 297.454 75.4372 295.3C74.1083 293.146 72.8544 291.013 71.6326 288.741C70.365 286.404 69.2169 284.004 68.1925 281.55C67.6673 280.254 67.1208 278.903 66.7135 277.403C66.1941 275.688 65.8529 273.925 65.6954 272.141L65.6311 271.391L65.7919 270.319C66.2871 267.12 67.1243 263.983 68.2889 260.963C69.3247 258.24 70.4979 255.572 71.8041 252.968C73.0366 250.449 74.344 248.017 75.7051 245.638C76.3803 244.448 77.0769 243.258 77.8485 242.09C78.6201 240.922 79.2524 239.807 80.1205 238.5L96.0032 249.892Z" fill="white"/>
<path d="M148.313 399.02L136.921 401.367L142.665 414.259L152.193 412.309L148.313 399.02Z" fill="#B55B52"/>
<path opacity="0.2" d="M148.313 399.02L136.91 401.377L140.136 408.59L150.489 406.468L148.313 399.02Z" fill="black"/>
<path d="M121.724 358.509C116.044 340.858 102.433 323.143 103.505 305.717L141.454 305.621C141.454 305.621 143.93 340.773 145.216 357.062C146.555 373.952 150.789 403.574 150.789 403.574L137.928 407.025C137.928 407.025 120.738 377.414 121.724 358.509Z" fill="#263238"/>
<path d="M143.276 418.739L146.245 417.957L146.502 416.821L148.206 417.442C153.618 417.046 158.84 415.279 163.381 412.309C162.83 411.189 162.018 410.219 161.013 409.479C161.013 409.479 156.597 410.551 153.661 409.737C153.187 409.585 152.674 409.619 152.225 409.833C150.392 410.733 145.473 412.952 142.076 412.652C142.002 412.644 141.928 412.656 141.86 412.686C141.792 412.716 141.733 412.763 141.689 412.822C141.645 412.881 141.617 412.951 141.607 413.025C141.598 413.098 141.608 413.173 141.636 413.241C142.328 415.027 142.876 416.866 143.276 418.739Z" fill="#263238"/>
<path d="M103.334 400.616L91.6735 400.734L92.2307 414.484L101.973 414.409L103.334 400.616Z" fill="#B55B52"/>
<path opacity="0.2" d="M103.334 400.627L91.6735 400.734L91.9843 408.44L102.573 408.343L103.334 400.627Z" fill="black"/>
<path d="M90.6554 354.083C89.7123 336.421 79.8526 317.763 84.6003 306.435L120.92 305.621C120.92 305.621 120.577 339.733 116.805 355.991C112.882 372.956 103.666 405.954 103.666 405.954H91.0626C91.0626 405.954 85.9185 374.22 90.6554 354.083Z" fill="#263238"/>
<path d="M118.841 217.077C120.116 218.309 120.984 217.57 120.909 215.876C121.383 216.218 121.759 216.677 122 217.209C122.241 217.74 122.34 218.326 122.286 218.907C122.232 219.488 122.027 220.045 121.691 220.523C121.356 221.001 120.902 221.383 120.374 221.631C117.994 222.982 115.315 222.221 114.383 220.763L114.018 215.78C115.83 214.858 116.923 215.244 118.841 217.077Z" fill="#E0E0E0"/>
<path d="M113.526 211.675L115.422 216.552C116.517 216.396 117.514 215.838 118.22 214.987C116.978 213.484 115.357 212.341 113.526 211.675Z" fill="#A02724"/>
<path d="M113.858 210.721C114.083 211.3 114.576 211.643 114.929 211.482C115.283 211.322 115.433 210.743 115.197 210.164C114.962 209.585 114.479 209.243 114.126 209.393C113.772 209.543 113.6 210.143 113.858 210.721Z" fill="#263238"/>
<path d="M115.358 214.955C114.955 214.949 114.558 214.862 114.19 214.697C112.823 214.009 111.775 212.818 111.264 211.375C110.193 208.792 110.814 206.124 112.54 205.417C112.885 205.289 113.252 205.235 113.619 205.257C113.987 205.279 114.345 205.377 114.672 205.545C116.039 206.234 117.088 207.424 117.598 208.867C118.67 211.45 118.048 214.119 116.323 214.826C116.013 214.935 115.685 214.979 115.358 214.955ZM113.451 205.77C113.208 205.773 112.968 205.82 112.743 205.91C111.286 206.51 110.846 208.867 111.768 211.172C112.22 212.486 113.165 213.574 114.404 214.205C114.662 214.327 114.942 214.397 115.227 214.41C115.513 214.423 115.798 214.378 116.065 214.28C117.523 213.679 117.962 211.322 117.041 209.017C116.589 207.703 115.643 206.615 114.404 205.985C114.104 205.851 113.78 205.778 113.451 205.77Z" fill="#263238"/>
<path d="M113.922 208.139C113.871 208.167 113.814 208.182 113.756 208.182C113.698 208.182 113.641 208.167 113.59 208.139C113.225 207.861 112.8 207.675 112.349 207.595C111.898 207.515 111.434 207.543 110.996 207.678C110.907 207.713 110.807 207.711 110.718 207.673C110.63 207.635 110.56 207.564 110.525 207.474C110.489 207.383 110.49 207.282 110.528 207.192C110.566 207.102 110.638 207.03 110.728 206.992C111.28 206.816 111.865 206.775 112.436 206.872C113.006 206.969 113.545 207.201 114.008 207.549C114.047 207.576 114.081 207.61 114.107 207.651C114.133 207.691 114.15 207.736 114.158 207.783C114.166 207.83 114.165 207.878 114.153 207.924C114.142 207.971 114.122 208.015 114.093 208.053C114.047 208.099 113.987 208.13 113.922 208.139Z" fill="#263238"/>
<path d="M93.2381 216.262C96.4532 223.196 98.8645 227.826 104.169 229.187C114.726 231.888 118.102 226.058 117.03 218.277C115.958 211.279 110.846 201.13 102.787 201.13C100.997 201.121 99.2344 201.567 97.6649 202.428C96.0953 203.288 94.7706 204.534 93.8154 206.047C92.8602 207.561 92.306 209.293 92.205 211.08C92.104 212.867 92.4596 214.65 93.2381 216.262Z" fill="#B55B52"/>
<path d="M116.473 234.01C115.764 232.638 114.612 231.546 113.204 230.912C112.67 229.54 112.632 228.023 113.097 226.626L97.1284 221.621C98.4145 226.893 99.4219 231.073 97.4607 233.634C100.601 235.542 106.356 238.993 112.625 238.811C118.895 238.629 117.491 236.217 116.473 234.01Z" fill="#B55B52"/>
<path d="M94.6528 233.066C93.699 230.023 95.1458 229.616 95.1458 229.616C95.1458 229.616 105.016 227.247 114.168 229.616C123.321 231.984 117.812 235.296 117.812 235.296L94.6528 233.066Z" fill="#263238"/>
<path d="M110.857 215.298C111.864 212.951 111.929 208.224 109.957 205.867C109.963 206.176 109.897 206.483 109.763 206.763C109.629 207.042 109.431 207.286 109.185 207.474C108.681 206.724 105.552 204.634 101.147 204.731C101.533 205.004 101.84 205.373 102.037 205.802C102.037 205.802 95.135 204.656 91.4055 207.474C91.4055 207.474 92.1986 208.546 91.6198 209.253C90.2588 210.025 89.7015 210.979 90.2481 214.119C90.7946 217.259 94.5349 222.757 98.1679 226.186C104.963 226.572 108.596 223.796 108.596 223.796C108.596 223.796 112.529 219.692 110.857 215.298Z" fill="#E0E0E0"/>
<path d="M107.556 214.387H107.492C107.458 214.379 107.425 214.365 107.397 214.344C107.368 214.324 107.344 214.298 107.326 214.268C107.308 214.238 107.296 214.204 107.291 214.169C107.287 214.134 107.289 214.099 107.299 214.065C107.728 212.393 109.957 210.797 111.404 210.207C113.547 209.296 116.901 208.064 116.934 208.064C117 208.042 117.072 208.047 117.135 208.077C117.197 208.108 117.246 208.161 117.269 208.227C117.293 208.293 117.29 208.365 117.262 208.428C117.233 208.492 117.181 208.542 117.116 208.567C117.116 208.567 113.783 209.789 111.607 210.711C110.3 211.247 108.199 212.726 107.813 214.205C107.794 214.257 107.759 214.303 107.713 214.335C107.667 214.368 107.612 214.386 107.556 214.387Z" fill="#263238"/>
<path d="M106.634 215.501C107.19 217.169 108.332 218.579 109.85 219.467C111.757 220.463 112.818 218.395 112.39 216.08C112.004 213.937 110.557 210.85 108.596 210.861C106.634 210.872 105.841 213.304 106.634 215.501Z" fill="#B55B52"/>
<path d="M121.574 233.527C110.785 232.506 99.9166 232.679 89.1656 234.042C87.6948 234.26 86.2841 234.777 85.0198 235.559C83.7554 236.342 82.664 237.374 81.8123 238.593C80.9606 239.812 80.3665 241.192 80.0664 242.648C79.7663 244.104 79.7664 245.607 80.0669 247.063C85.1039 272.441 82.6175 303.016 83.1427 308.032C83.1427 308.032 114.822 315.834 143.158 307.335C146.47 276.256 135.324 250.449 130.233 239.711C129.439 238.026 128.227 236.572 126.71 235.489C125.194 234.407 123.426 233.731 121.574 233.527Z" fill="#263238"/>
<path d="M90.7947 418.739H93.3239L93.9669 417.667L95.3387 418.739H111.639C111.681 417.521 111.404 416.313 110.836 415.234C110.836 415.234 105.252 414.817 103.398 412.545C103.333 412.455 103.245 412.385 103.142 412.344C103.04 412.302 102.928 412.29 102.819 412.309C101.319 412.63 95.3173 413.777 91.9307 412.577C91.8493 412.542 91.7606 412.529 91.6727 412.538C91.5849 412.547 91.5008 412.578 91.4281 412.629C91.3555 412.679 91.2966 412.747 91.2571 412.825C91.2176 412.904 91.1986 412.992 91.2019 413.08C91.2108 414.974 91.0747 416.866 90.7947 418.739Z" fill="#263238"/>
<path d="M127.897 234.653C114.747 227.729 88.8335 230.655 83.1106 234.835C72.1899 242.819 82.1461 268.701 82.2318 293.403C82.3175 318.106 81.0636 345.992 81.0636 376.685C107.717 397.048 153.704 375.239 153.704 375.239C153.704 375.239 154.325 248.585 127.897 234.653Z" fill="#407BFF"/>
<path opacity="0.8" d="M127.897 234.653C114.747 227.729 88.8335 230.655 83.1106 234.835C72.1899 242.819 82.1461 268.701 82.2318 293.403C82.3175 318.106 81.0636 345.992 81.0636 376.685C107.717 397.048 153.704 375.239 153.704 375.239C153.704 375.239 154.325 248.585 127.897 234.653Z" fill="white"/>
<path opacity="0.2" d="M137.95 248.167L127.715 249.999C131.761 252.712 136.184 254.814 140.843 256.237C140.014 253.5 139.049 250.807 137.95 248.167Z" fill="#407BFF"/>
<path d="M172.03 214.676L169.447 215.351C169.001 215.45 168.588 215.661 168.245 215.962C167.902 216.264 167.641 216.647 167.486 217.077L166.264 220.935C166.036 221.732 166.029 222.576 166.244 223.376C166.459 224.177 166.889 224.904 167.486 225.479L168.257 226.293C172.651 225.404 176.413 221.696 176.413 221.696L177.635 220.753C177.894 220.576 178.108 220.34 178.258 220.064C178.409 219.788 178.492 219.481 178.5 219.167C178.509 218.853 178.442 218.542 178.307 218.258C178.171 217.975 177.97 217.728 177.72 217.538L175.341 215.394C174.888 215.016 174.35 214.753 173.774 214.628C173.197 214.503 172.599 214.519 172.03 214.676Z" fill="#B55B52"/>
<path d="M162.899 221.803L164.828 219.724C168.239 221.852 171.527 224.17 174.677 226.668C174.171 227.566 173.734 228.502 173.369 229.466L162.899 221.803Z" fill="#263238"/>
<path d="M121.981 232.531C124.125 232.938 126.472 233.334 128.722 233.699C130.973 234.063 133.256 234.428 135.506 234.77C140.018 235.435 144.541 236.024 148.838 236.367L146.984 236.496C146.641 236.614 146.984 236.592 147.563 236.303C148.257 235.935 148.913 235.501 149.524 235.006C151.143 233.723 152.659 232.315 154.057 230.794C155.579 229.198 157.069 227.451 158.516 225.65C159.234 224.75 159.952 223.828 160.659 222.907C161.366 221.985 162.063 220.988 162.642 220.174L175.866 228.576C175.084 229.851 174.42 230.891 173.669 232.027C172.919 233.163 172.19 234.235 171.419 235.317C169.886 237.46 168.268 239.604 166.489 241.747C164.638 243.996 162.618 246.099 160.445 248.038C159.176 249.172 157.813 250.198 156.372 251.103C154.443 252.344 152.304 253.222 150.06 253.697L149.406 253.836H148.216C143.147 253.836 138.335 253.536 133.534 253.204C131.134 253.032 128.744 252.843 126.364 252.636C123.964 252.421 121.628 252.196 119.173 251.939L121.981 232.531Z" fill="#407BFF"/>
<path opacity="0.8" d="M121.981 232.531C124.125 232.938 126.472 233.334 128.722 233.699C130.973 234.063 133.256 234.428 135.506 234.77C140.018 235.435 144.541 236.024 148.838 236.367L146.984 236.496C146.641 236.614 146.984 236.592 147.563 236.303C148.257 235.935 148.913 235.501 149.524 235.006C151.143 233.723 152.659 232.315 154.057 230.794C155.579 229.198 157.069 227.451 158.516 225.65C159.234 224.75 159.952 223.828 160.659 222.907C161.366 221.985 162.063 220.988 162.642 220.174L175.866 228.576C175.084 229.851 174.42 230.891 173.669 232.027C172.919 233.163 172.19 234.235 171.419 235.317C169.886 237.46 168.268 239.604 166.489 241.747C164.638 243.996 162.618 246.099 160.445 248.038C159.176 249.172 157.813 250.198 156.372 251.103C154.443 252.344 152.304 253.222 150.06 253.697L149.406 253.836H148.216C143.147 253.836 138.335 253.536 133.534 253.204C131.134 253.032 128.744 252.843 126.364 252.636C123.964 252.421 121.628 252.196 119.173 251.939L121.981 232.531Z" fill="white"/>
<path opacity="0.2" d="M394.386 313.787L394.837 330.506H349.868L349.139 303.402H391.922L391.343 300.948H349.075L348.357 273.845H371.12C371.12 273.02 371.12 272.194 371.12 271.38H348.303L347.617 245.809H343.963L348.528 417.742H352.194L351.518 392.139H396.444L397.13 417.699H400.817L398.523 331.502L394.386 313.787ZM349.975 332.971H394.901L395.619 360.074H350.65L349.975 332.971ZM351.486 389.642L350.768 362.539H395.694L396.412 389.642H351.486Z" fill="black"/>
<path d="M424.63 426.101H428.295L396.98 245.841H393.315L397.966 272.634H353.051L348.4 245.841H344.735L376.05 426.101H379.704L375.053 399.309H419.979L424.63 426.101ZM409.208 337.268L414.138 365.69H369.212L364.282 337.268H409.208ZM363.832 334.675L358.892 306.285H403.818L408.758 334.707L363.832 334.675ZM398.427 275.206L403.367 303.638H358.442L353.501 275.206H398.427ZM374.603 396.705L369.662 368.272H414.588L419.529 396.705H374.603Z" fill="#263238"/>
<path d="M403.775 213.294L403.099 211.032C402.972 210.614 402.946 210.17 403.024 209.74C403.102 209.309 403.282 208.903 403.55 208.557L406.079 205.277C406.581 204.626 407.233 204.106 407.98 203.761C408.726 203.416 409.544 203.256 410.366 203.295H411.437C412.831 206.96 411.63 211.954 411.63 211.954L411.448 213.411C411.419 213.712 411.33 214.003 411.187 214.269C411.044 214.535 410.85 214.77 410.616 214.96C410.382 215.151 410.112 215.293 409.823 215.378C409.533 215.464 409.23 215.491 408.93 215.458L406.025 215.137C405.511 215.083 405.024 214.88 404.624 214.552C404.224 214.225 403.929 213.787 403.775 213.294Z" fill="#7F3E3B"/>
<path d="M407.376 203.209L406.175 204.999C409.456 206.557 412.823 207.928 416.26 209.103C416.719 208.303 417.234 207.536 417.803 206.81L407.376 203.209Z" fill="white"/>
<path d="M399.209 149.313C401.181 151.028 403.024 152.689 404.889 154.414C406.754 156.14 408.597 157.865 410.419 159.644C414.19 163.246 417.767 167.046 421.136 171.026L421.704 171.712L421.972 172.237C422.949 174.183 423.553 176.295 423.751 178.463C423.917 180.13 423.946 181.807 423.837 183.479C423.632 186.415 423.206 189.331 422.562 192.202C421.972 194.967 421.254 197.636 420.418 200.262C419.582 202.887 418.789 205.417 417.782 208.128L405.993 203.895C406.7 201.687 407.408 199.201 407.997 196.843C408.587 194.485 409.069 192.052 409.508 189.705C409.904 187.471 410.133 185.211 410.194 182.943C410.215 182.011 410.158 181.079 410.023 180.157C409.993 179.722 409.865 179.301 409.648 178.924L410.494 180.135C407.273 176.746 403.879 173.527 400.324 170.49C398.513 168.914 396.669 167.371 394.804 165.839C392.94 164.306 391.032 162.774 389.199 161.348L399.209 149.313Z" fill="#407BFF"/>
<path opacity="0.7" d="M399.209 149.313C401.181 151.028 403.024 152.689 404.889 154.414C406.754 156.14 408.597 157.865 410.419 159.644C414.19 163.246 417.767 167.046 421.136 171.026L421.704 171.712L421.972 172.237C422.949 174.183 423.553 176.295 423.751 178.463C423.917 180.13 423.946 181.807 423.837 183.479C423.632 186.415 423.206 189.331 422.562 192.202C421.972 194.967 421.254 197.636 420.418 200.262C419.582 202.887 418.789 205.417 417.782 208.128L405.993 203.895C406.7 201.687 407.408 199.201 407.997 196.843C408.587 194.485 409.069 192.052 409.508 189.705C409.904 187.471 410.133 185.211 410.194 182.943C410.215 182.011 410.158 181.079 410.023 180.157C409.993 179.722 409.865 179.301 409.648 178.924L410.494 180.135C407.273 176.746 403.879 173.527 400.324 170.49C398.513 168.914 396.669 167.371 394.804 165.839C392.94 164.306 391.032 162.774 389.199 161.348L399.209 149.313Z" fill="white"/>
<path d="M387.495 133.602C386.584 137.781 385.599 145.455 388.46 148.241C388.46 148.241 384.462 147.641 376.328 152.85C373.703 149.356 375.46 148.241 375.46 148.241C380.144 147.17 380.101 143.665 379.361 140.418L387.495 133.602Z" fill="#7F3E3B"/>
<path d="M372.127 126.604C372.02 127.161 371.645 127.568 371.281 127.514C370.916 127.461 370.702 126.946 370.809 126.378C370.916 125.81 371.291 125.414 371.656 125.478C372.02 125.543 372.235 126.046 372.127 126.604Z" fill="#263238"/>
<path d="M371.795 122.938C371.709 122.926 371.629 122.884 371.57 122.82C371.519 122.749 371.499 122.661 371.513 122.575C371.527 122.488 371.574 122.411 371.645 122.36C372.068 122.029 372.563 121.801 373.089 121.695C373.616 121.589 374.16 121.607 374.678 121.749C374.72 121.761 374.76 121.781 374.793 121.809C374.827 121.837 374.854 121.872 374.874 121.912C374.893 121.951 374.904 121.995 374.905 122.038C374.906 122.082 374.898 122.126 374.881 122.167C374.85 122.249 374.788 122.317 374.708 122.355C374.628 122.393 374.537 122.398 374.453 122.37C374.041 122.265 373.61 122.255 373.194 122.343C372.778 122.43 372.387 122.612 372.052 122.874C372.017 122.904 371.976 122.925 371.931 122.936C371.887 122.947 371.84 122.948 371.795 122.938Z" fill="#263238"/>
<path d="M371.699 127.643C370.959 128.828 370.065 129.909 369.041 130.858C369.288 131.111 369.589 131.305 369.92 131.427C370.252 131.55 370.607 131.597 370.959 131.566L371.699 127.643Z" fill="#630F0F"/>
<path d="M371.817 125.532L370.541 124.921C370.541 124.921 371.034 126.089 371.817 125.532Z" fill="#263238"/>
<path d="M390.979 127.622C389.435 134.234 388.932 137.063 384.945 139.936C378.943 144.222 371.077 140.943 370.595 134.02C370.155 127.782 372.738 118.03 379.811 116.444C381.352 116.079 382.961 116.115 384.485 116.547C386.008 116.98 387.396 117.795 388.515 118.916C389.634 120.036 390.448 121.424 390.879 122.948C391.311 124.472 391.345 126.081 390.979 127.622Z" fill="#7F3E3B"/>
<path d="M375.46 128.436C373.66 128.007 374.721 122.713 375.46 121.62C371.849 120.602 369.084 117.676 373.21 114.868C377.336 112.061 380.937 111.01 382.801 112.253C383.927 109.038 391.236 110.485 394.815 116.208C398.213 121.62 395.565 125.95 393.133 126.132C396.991 129.347 391.954 135.531 387.592 136.774C387.345 141.061 379.94 141.254 376.586 138.017C373.231 134.781 375.46 128.436 375.46 128.436Z" fill="#263238"/>
<path d="M378.397 129.54C378.218 130.157 377.906 130.728 377.485 131.213C377.063 131.698 376.54 132.085 375.953 132.348C374.464 132.927 373.499 131.212 373.735 129.369C373.949 127.707 374.967 125.403 376.553 125.628C378.14 125.853 378.922 127.879 378.397 129.54Z" fill="#7F3E3B"/>
<path d="M424.158 327.258C428.531 324.493 427.834 323.368 430.235 321.728C432.293 320.324 432.979 320.271 434.65 319.167C436.044 318.245 435.058 316.874 433.579 315.545C432.818 314.87 431.821 314.098 430.653 312.983L424.008 317.184C424.287 319.542 423.708 323.261 421.468 325.158C419.229 327.055 422.412 328.362 424.158 327.258Z" fill="#263238"/>
<path d="M368.741 334.675C376.178 334.675 375.696 334.45 378.622 334.396C380.765 334.396 380.176 334.675 384.163 334.675C385.845 334.675 385.995 332.778 385.374 331.352C384.711 330.109 384.155 328.811 383.712 327.473H376.521C375.246 329.755 371.72 331.438 367.766 331.76C364.947 331.931 366.651 334.675 368.741 334.675Z" fill="#263238"/>
<path d="M366.64 192.588C366.64 192.588 365.804 230.098 368.162 253.911C368.162 276.267 376.532 327.473 376.532 327.473C376.704 328.619 382.705 328.159 383.712 327.473C383.712 327.473 388.299 289.963 383.112 253.707C395.394 215.876 394.44 192.62 394.44 192.62L366.64 192.588Z" fill="#263238"/>
<path d="M374.121 192.588C374.121 192.588 388.524 234.92 394.558 255.712C400.881 277.542 416.474 304.378 423.987 317.184C425.412 317.184 429.045 314.912 430.631 312.983C422.476 298.505 422.251 278.217 409.83 256.676C409.948 204.966 401.503 192.588 401.503 192.588H374.121Z" fill="#263238"/>
<path d="M421.769 314.934C422.315 315.793 422.802 316.688 423.226 317.613C423.258 317.692 423.305 317.765 423.365 317.825C423.425 317.886 423.496 317.935 423.575 317.967C423.654 318 423.739 318.017 423.824 318.017C423.909 318.017 423.994 318 424.073 317.967C426.574 316.697 428.871 315.061 430.889 313.112C430.98 313.023 431.04 312.908 431.061 312.783C431.082 312.658 431.063 312.529 431.007 312.415L429.753 309.8C429.715 309.718 429.66 309.644 429.591 309.584C429.522 309.524 429.442 309.48 429.355 309.454C429.267 309.427 429.176 309.42 429.086 309.431C428.995 309.443 428.909 309.474 428.831 309.522L421.886 314.109C421.824 314.155 421.772 314.213 421.733 314.28C421.693 314.346 421.668 314.42 421.657 314.497C421.646 314.573 421.65 314.651 421.669 314.726C421.688 314.801 421.722 314.872 421.769 314.934Z" fill="#407BFF"/>
<path opacity="0.3" d="M421.769 314.934C422.315 315.793 422.802 316.688 423.226 317.613C423.258 317.692 423.305 317.765 423.365 317.825C423.425 317.886 423.496 317.935 423.575 317.967C423.654 318 423.739 318.017 423.824 318.017C423.909 318.017 423.994 318 424.073 317.967C426.574 316.697 428.871 315.061 430.889 313.112C430.98 313.023 431.04 312.908 431.061 312.783C431.082 312.658 431.063 312.529 431.007 312.415L429.753 309.8C429.715 309.718 429.66 309.644 429.591 309.584C429.522 309.524 429.442 309.48 429.355 309.454C429.267 309.427 429.176 309.42 429.086 309.431C428.995 309.443 428.909 309.474 428.831 309.522L421.886 314.109C421.824 314.155 421.772 314.213 421.733 314.28C421.693 314.346 421.668 314.42 421.657 314.497C421.646 314.573 421.65 314.651 421.669 314.726C421.688 314.801 421.722 314.872 421.769 314.934Z" fill="white"/>
<path d="M375.353 324.804C375.353 325.587 375.407 326.948 375.353 328.019C375.35 328.184 375.411 328.345 375.522 328.466C375.634 328.588 375.788 328.662 375.953 328.673C378.602 328.759 381.253 328.601 383.873 328.201C383.999 328.182 384.114 328.122 384.203 328.031C384.292 327.941 384.349 327.824 384.366 327.698L384.752 324.89C384.763 324.798 384.754 324.705 384.726 324.617C384.697 324.528 384.651 324.447 384.589 324.378C384.527 324.309 384.452 324.254 384.367 324.217C384.282 324.18 384.191 324.161 384.098 324.161L375.9 324.236C375.755 324.249 375.621 324.313 375.52 324.418C375.42 324.522 375.36 324.659 375.353 324.804Z" fill="#407BFF"/>
<path opacity="0.3" d="M375.353 324.804C375.353 325.587 375.407 326.948 375.353 328.019C375.35 328.184 375.411 328.345 375.522 328.466C375.634 328.588 375.788 328.662 375.953 328.673C378.602 328.759 381.253 328.601 383.873 328.201C383.999 328.182 384.114 328.122 384.203 328.031C384.292 327.941 384.349 327.824 384.366 327.698L384.752 324.89C384.763 324.798 384.754 324.705 384.726 324.617C384.697 324.528 384.651 324.447 384.589 324.378C384.527 324.309 384.452 324.254 384.367 324.217C384.282 324.18 384.191 324.161 384.098 324.161L375.9 324.236C375.755 324.249 375.621 324.313 375.52 324.418C375.42 324.522 375.36 324.659 375.353 324.804Z" fill="white"/>
<path d="M363.307 158.883C363.371 161.702 363.446 165.26 364.186 171.979C364.7 177.67 365.386 183.264 366.694 192.588H401.556C400.559 184.529 396.026 175.334 400.217 157.222C400.454 156.241 400.479 155.221 400.289 154.23C400.099 153.239 399.698 152.3 399.114 151.477C398.53 150.654 397.776 149.966 396.903 149.46C396.03 148.953 395.059 148.64 394.054 148.541C392.918 148.434 391.707 148.338 390.475 148.273C385.732 147.962 380.974 147.962 376.232 148.273C374.817 148.402 373.37 148.584 371.945 148.777C369.525 149.13 367.316 150.349 365.728 152.208C364.139 154.066 363.279 156.438 363.307 158.883Z" fill="#407BFF"/>
<path d="M305.553 181.968C306.57 183.131 307.768 184.122 309.1 184.904C310.794 185.9 312.672 186.543 314.621 186.794C316.569 187.044 318.549 186.897 320.439 186.362L319.925 180.06C318.664 180.899 317.211 181.404 315.702 181.528C315.399 181.544 315.095 181.544 314.791 181.528C313.5 181.505 312.23 181.202 311.068 180.641C309.905 180.08 308.878 179.273 308.057 178.277C307.236 177.281 306.64 176.119 306.311 174.87C305.982 173.622 305.927 172.317 306.15 171.046C306.374 169.774 306.87 168.566 307.604 167.505C308.339 166.443 309.295 165.554 310.406 164.897C311.518 164.24 312.758 163.832 314.042 163.7C315.327 163.569 316.624 163.717 317.846 164.135L318.639 164.435L317.224 147.384L300.077 148.745C300.226 148.413 300.359 148.073 300.473 147.727C300.807 146.631 300.93 145.482 300.838 144.34C300.641 141.978 299.515 139.789 297.707 138.256C295.898 136.723 293.555 135.97 291.192 136.163C290.5 136.229 289.818 136.369 289.156 136.581C288.032 136.942 286.992 137.523 286.095 138.291C285.198 139.058 284.463 139.996 283.932 141.051C283.401 142.105 283.086 143.254 283.004 144.432C282.922 145.609 283.075 146.791 283.455 147.909C283.45 147.955 283.45 148.002 283.455 148.048C283.45 148.069 283.45 148.091 283.455 148.113C283.696 148.789 284.02 149.434 284.419 150.031L267.347 151.435L268.751 168.507C268.987 168.346 269.233 168.218 269.48 168.078C270.818 167.359 272.318 166.993 273.837 167.015C275.356 167.036 276.845 167.445 278.163 168.202C279.48 168.959 280.583 170.039 281.367 171.341C282.151 172.643 282.59 174.123 282.643 175.641C282.695 177.16 282.36 178.667 281.669 180.02C280.977 181.373 279.952 182.527 278.69 183.374C277.429 184.22 275.972 184.731 274.458 184.859C272.944 184.986 271.422 184.725 270.037 184.1L270.583 190.745C276.767 189.062 283.283 187.048 289.949 184.797C292.547 185.877 295.4 186.184 298.168 185.682C300.936 185.18 303.5 183.891 305.553 181.968Z" fill="white"/>
<path d="M312.669 158.594L314.995 158.176C315.424 158.096 315.866 158.12 316.284 158.247C316.702 158.374 317.083 158.6 317.395 158.905L320.364 161.798C320.949 162.37 321.389 163.072 321.648 163.847C321.907 164.623 321.978 165.448 321.854 166.257L321.693 167.275C317.888 168.228 313.119 166.46 313.119 166.46L311.683 166.106C311.389 166.042 311.111 165.92 310.864 165.747C310.617 165.575 310.406 165.356 310.244 165.102C310.082 164.848 309.971 164.565 309.918 164.268C309.866 163.972 309.872 163.668 309.936 163.374L310.601 160.534C310.723 160.046 310.982 159.603 311.349 159.259C311.716 158.915 312.174 158.684 312.669 158.594Z" fill="#7F3E3B"/>
<path d="M322.272 163.331L320.632 161.884C318.71 164.968 316.961 168.156 315.391 171.433C316.146 171.98 316.862 172.578 317.535 173.223L322.272 163.331Z" fill="white"/>
<path d="M372.663 146.794C365.161 147.866 360.264 153.01 359.556 169.825C359.307 182.428 359.733 195.035 360.832 207.592C359.76 237.964 357.981 280.661 363.254 294.904C382.384 301.998 413.484 292.032 428.017 284.69C423.312 273.973 413.624 236.978 409.144 207.881C406.797 192.588 403.903 168.947 403.217 159.183C402.531 149.42 397.452 147.459 392.608 146.484C387.763 145.508 380.712 145.658 372.663 146.794Z" fill="#407BFF"/>
<path opacity="0.8" d="M372.663 146.794C365.161 147.866 360.264 153.01 359.556 169.825C359.307 182.428 359.733 195.035 360.832 207.592C359.76 237.964 357.981 280.661 363.254 294.904C382.384 301.998 413.484 292.032 428.017 284.69C423.312 273.973 413.624 236.978 409.144 207.881C406.797 192.588 403.903 168.947 403.217 159.183C402.531 149.42 397.452 147.459 392.608 146.484C387.763 145.508 380.712 145.658 372.663 146.794Z" fill="white"/>
<path opacity="0.2" d="M359.556 169.804C359.46 172.076 359.428 175.323 359.471 179.149C365.429 174.219 368.151 165.903 368.151 165.903L359.556 169.804Z" fill="#407BFF"/>
<path d="M375.91 161.766C374.046 163.524 372.267 165.131 370.423 166.771C368.58 168.411 366.715 169.986 364.818 171.583C360.944 174.862 356.882 177.915 352.654 180.724L351.893 181.207L351.347 181.41C349.29 182.168 347.108 182.532 344.917 182.482C343.241 182.456 341.57 182.288 339.923 181.978C337.012 181.443 334.145 180.687 331.349 179.717C328.67 178.806 326.108 177.788 323.579 176.695C321.05 175.602 318.649 174.487 316.077 173.169L321.639 161.991C323.783 162.945 326.14 163.942 328.412 164.799C330.684 165.656 333.042 166.46 335.336 167.125C337.507 167.78 339.724 168.271 341.969 168.593C342.892 168.722 343.825 168.772 344.756 168.743C345.192 168.755 345.626 168.679 346.031 168.518L344.724 169.214C348.292 166.512 351.702 163.606 354.937 160.512C356.62 158.948 358.281 157.297 359.921 155.7C361.56 154.103 363.211 152.378 364.722 150.77L375.91 161.766Z" fill="#407BFF"/>
<path opacity="0.8" d="M375.91 161.766C374.046 163.524 372.267 165.131 370.423 166.771C368.58 168.411 366.715 169.986 364.818 171.583C360.944 174.862 356.882 177.915 352.654 180.724L351.893 181.207L351.347 181.41C349.29 182.168 347.108 182.532 344.917 182.482C343.241 182.456 341.57 182.288 339.923 181.978C337.012 181.443 334.145 180.687 331.349 179.717C328.67 178.806 326.108 177.788 323.579 176.695C321.05 175.602 318.649 174.487 316.077 173.169L321.639 161.991C323.783 162.945 326.14 163.942 328.412 164.799C330.684 165.656 333.042 166.46 335.336 167.125C337.507 167.78 339.724 168.271 341.969 168.593C342.892 168.722 343.825 168.772 344.756 168.743C345.192 168.755 345.626 168.679 346.031 168.518L344.724 169.214C348.292 166.512 351.702 163.606 354.937 160.512C356.62 158.948 358.281 157.297 359.921 155.7C361.56 154.103 363.211 152.378 364.722 150.77L375.91 161.766Z" fill="white"/>
<path d="M390.035 112.232C387.656 111.535 384.58 114.043 385.834 117.783C387.088 121.524 390.807 123.292 393.733 122.07C396.659 120.848 395.298 113.754 390.035 112.232Z" fill="#407BFF"/>
<path d="M388.331 117.751C386.735 111.503 394.762 102.597 398.63 113.979C401.01 120.999 389.864 123.71 388.331 117.751Z" fill="#263238"/>
</svg>
