<svg width="1131" height="211" viewBox="0 0 1131 211" fill="none" xmlns="http://www.w3.org/2000/svg">
<g clip-path="url(#clip0)">
<path d="M54.738 201.785H0V11.559H54.738V201.785ZM340.399 11.559V201.785H296.232L166.6 88.968V201.785H111.862V11.559H156.029L285.661 124.376V11.559H340.399ZM610.299 145.244C610.299 170.867 600.269 201.785 535.319 201.785H392.218V11.559H528.449C581.259 11.559 605.799 35.588 605.799 69.667C605.799 80.253 600.519 97.161 586.529 106.927C602.109 114.074 610.299 131.498 610.299 145.244V145.244ZM445.029 84.73H509.449C537.699 84.73 551.689 86.065 551.689 72.061C551.689 58.592 537.699 59.108 509.449 59.108H445.029V84.73ZM556.169 141.29C556.169 127.802 542.709 128.337 513.929 128.337H445.029V154.217H513.929C542.719 154.217 556.169 155.275 556.169 141.29ZM769.879 0C695.059 0 644.789 41.916 644.789 104.302C644.789 167.551 695.059 210.048 769.879 210.048C844.529 210.048 894.689 167.551 894.689 104.302C894.689 41.916 844.529 0 769.879 0ZM769.879 159.758C727.689 159.758 699.329 137.587 699.329 104.579C699.329 72.609 728.229 50.283 769.599 50.283C811.139 50.283 840.139 72.609 840.139 104.579C840.149 137.587 811.909 159.758 769.879 159.758ZM994.049 59.108H912.929V11.559H1130.16V59.108H1048.77V201.785H994.049V59.108Z" fill="#030030"/>
</g>
<defs>
<clipPath id="clip0">
<rect width="1131" height="211" fill="none"/>
</clipPath>
</defs>
</svg>