<svg width="308" height="58" viewBox="0 0 308 58" fill="none" xmlns="http://www.w3.org/2000/svg">
<g filter="url(#filter0_d)">
<rect x="4" width="300" height="50" rx="10" fill="white"/>
</g>
<path d="M43.2021 27.4316C43.2021 28.5918 42.7832 29.5059 41.9453 30.1738C41.1133 30.8418 39.9531 31.1758 38.4648 31.1758C37.0938 31.1758 35.8809 30.918 34.8262 30.4023V27.8711C35.6934 28.2578 36.4258 28.5303 37.0234 28.6885C37.627 28.8467 38.1777 28.9258 38.6758 28.9258C39.2734 28.9258 39.7305 28.8115 40.0469 28.583C40.3691 28.3545 40.5303 28.0146 40.5303 27.5635C40.5303 27.3115 40.46 27.0889 40.3193 26.8955C40.1787 26.6963 39.9707 26.5059 39.6953 26.3242C39.4258 26.1426 38.8721 25.8525 38.0342 25.4541C37.249 25.085 36.6602 24.7305 36.2676 24.3906C35.875 24.0508 35.5615 23.6553 35.3271 23.2041C35.0928 22.7529 34.9756 22.2256 34.9756 21.6221C34.9756 20.4854 35.3594 19.5918 36.127 18.9414C36.9004 18.291 37.9668 17.9658 39.3262 17.9658C39.9941 17.9658 40.6299 18.0449 41.2334 18.2031C41.8428 18.3613 42.4785 18.584 43.1406 18.8711L42.2617 20.9893C41.5762 20.708 41.0078 20.5117 40.5566 20.4004C40.1113 20.2891 39.6719 20.2334 39.2383 20.2334C38.7227 20.2334 38.3271 20.3535 38.0518 20.5938C37.7764 20.834 37.6387 21.1475 37.6387 21.5342C37.6387 21.7744 37.6943 21.9854 37.8057 22.167C37.917 22.3428 38.0928 22.5156 38.333 22.6855C38.5791 22.8496 39.1562 23.1484 40.0645 23.582C41.2656 24.1562 42.0889 24.7334 42.5342 25.3135C42.9795 25.8877 43.2021 26.5938 43.2021 27.4316ZM45.2061 18.6338C45.2061 17.7607 45.6924 17.3242 46.665 17.3242C47.6377 17.3242 48.124 17.7607 48.124 18.6338C48.124 19.0498 48.001 19.375 47.7549 19.6094C47.5146 19.8379 47.1514 19.9521 46.665 19.9521C45.6924 19.9521 45.2061 19.5127 45.2061 18.6338ZM48.001 31H45.3203V21.1738H48.001V31ZM59.374 21.1738V22.5361L57.8359 22.9316C58.1172 23.3711 58.2578 23.8633 58.2578 24.4082C58.2578 25.4629 57.8887 26.2861 57.1504 26.8779C56.418 27.4639 55.3984 27.7568 54.0918 27.7568L53.6084 27.7305L53.2129 27.6865C52.9375 27.8975 52.7998 28.1318 52.7998 28.3896C52.7998 28.7764 53.292 28.9697 54.2764 28.9697H55.9463C57.0244 28.9697 57.8447 29.2012 58.4072 29.6641C58.9756 30.127 59.2598 30.8066 59.2598 31.7031C59.2598 32.8516 58.7793 33.7422 57.8184 34.375C56.8633 35.0078 55.4893 35.3242 53.6963 35.3242C52.3252 35.3242 51.2764 35.084 50.5498 34.6035C49.8291 34.1289 49.4688 33.4609 49.4688 32.5996C49.4688 32.0078 49.6533 31.5127 50.0225 31.1143C50.3916 30.7158 50.9336 30.4316 51.6484 30.2617C51.373 30.1445 51.1328 29.9541 50.9277 29.6904C50.7227 29.4209 50.6201 29.1367 50.6201 28.8379C50.6201 28.4629 50.7285 28.1523 50.9453 27.9062C51.1621 27.6543 51.4756 27.4082 51.8857 27.168C51.3701 26.9453 50.96 26.5879 50.6553 26.0957C50.3564 25.6035 50.207 25.0234 50.207 24.3555C50.207 23.2832 50.5557 22.4541 51.2529 21.8682C51.9502 21.2822 52.9463 20.9893 54.2412 20.9893C54.5166 20.9893 54.8418 21.0156 55.2168 21.0684C55.5977 21.1152 55.8408 21.1504 55.9463 21.1738H59.374ZM51.7891 32.3887C51.7891 32.7578 51.9648 33.0479 52.3164 33.2588C52.6738 33.4697 53.1719 33.5752 53.8105 33.5752C54.7715 33.5752 55.5244 33.4434 56.0693 33.1797C56.6143 32.916 56.8867 32.5557 56.8867 32.0986C56.8867 31.7295 56.7256 31.4746 56.4033 31.334C56.0811 31.1934 55.583 31.123 54.9092 31.123H53.5205C53.0283 31.123 52.6152 31.2373 52.2812 31.4658C51.9531 31.7002 51.7891 32.0078 51.7891 32.3887ZM52.7646 24.3906C52.7646 24.9238 52.8848 25.3457 53.125 25.6562C53.3711 25.9668 53.7432 26.1221 54.2412 26.1221C54.7451 26.1221 55.1143 25.9668 55.3486 25.6562C55.583 25.3457 55.7002 24.9238 55.7002 24.3906C55.7002 23.207 55.2139 22.6152 54.2412 22.6152C53.2568 22.6152 52.7646 23.207 52.7646 24.3906ZM70.0703 31H67.3896V25.2607C67.3896 24.5518 67.2637 24.0215 67.0117 23.6699C66.7598 23.3125 66.3584 23.1338 65.8076 23.1338C65.0576 23.1338 64.5156 23.3857 64.1816 23.8896C63.8477 24.3877 63.6807 25.2168 63.6807 26.377V31H61V21.1738H63.0479L63.4082 22.4307H63.5576C63.8564 21.9561 64.2666 21.5986 64.7881 21.3584C65.3154 21.1123 65.9131 20.9893 66.5811 20.9893C67.7236 20.9893 68.5908 21.2998 69.1826 21.9209C69.7744 22.5361 70.0703 23.4268 70.0703 24.5928V31ZM77.3916 18.6338C77.3916 17.7607 77.8779 17.3242 78.8506 17.3242C79.8232 17.3242 80.3096 17.7607 80.3096 18.6338C80.3096 19.0498 80.1865 19.375 79.9404 19.6094C79.7002 19.8379 79.3369 19.9521 78.8506 19.9521C77.8779 19.9521 77.3916 19.5127 77.3916 18.6338ZM80.1865 31H77.5059V21.1738H80.1865V31ZM92.0781 31H89.3975V25.2607C89.3975 24.5518 89.2715 24.0215 89.0195 23.6699C88.7676 23.3125 88.3662 23.1338 87.8154 23.1338C87.0654 23.1338 86.5234 23.3857 86.1895 23.8896C85.8555 24.3877 85.6885 25.2168 85.6885 26.377V31H83.0078V21.1738H85.0557L85.416 22.4307H85.5654C85.8643 21.9561 86.2744 21.5986 86.7959 21.3584C87.3232 21.1123 87.9209 20.9893 88.5889 20.9893C89.7314 20.9893 90.5986 21.2998 91.1904 21.9209C91.7822 22.5361 92.0781 23.4268 92.0781 24.5928V31ZM107.591 31L106.835 27.5635L105.815 23.2217H105.754L103.961 31H101.078L98.2832 21.1738H100.955L102.089 25.5244C102.271 26.3037 102.455 27.3789 102.643 28.75H102.695C102.719 28.3047 102.821 27.5986 103.003 26.6318L103.144 25.8848L104.356 21.1738H107.31L108.461 25.8848C108.484 26.0137 108.52 26.2041 108.566 26.4561C108.619 26.708 108.669 26.9775 108.716 27.2646C108.763 27.5459 108.804 27.8242 108.839 28.0996C108.88 28.3691 108.903 28.5859 108.909 28.75H108.962C109.015 28.3281 109.108 27.751 109.243 27.0186C109.378 26.2803 109.475 25.7822 109.533 25.5244L110.711 21.1738H113.339L110.509 31H107.591ZM114.815 18.6338C114.815 17.7607 115.302 17.3242 116.274 17.3242C117.247 17.3242 117.733 17.7607 117.733 18.6338C117.733 19.0498 117.61 19.375 117.364 19.6094C117.124 19.8379 116.761 19.9521 116.274 19.9521C115.302 19.9521 114.815 19.5127 114.815 18.6338ZM117.61 31H114.93V21.1738H117.61V31ZM124.571 29.04C125.04 29.04 125.603 28.9375 126.259 28.7324V30.7275C125.591 31.0264 124.771 31.1758 123.798 31.1758C122.726 31.1758 121.943 30.9062 121.451 30.3672C120.965 29.8223 120.722 29.0078 120.722 27.9238V23.1865H119.438V22.0527L120.915 21.1562L121.688 19.082H123.402V21.1738H126.153V23.1865H123.402V27.9238C123.402 28.3047 123.508 28.5859 123.719 28.7676C123.936 28.9492 124.22 29.04 124.571 29.04ZM137.324 31H134.644V25.2607C134.644 23.8428 134.116 23.1338 133.062 23.1338C132.312 23.1338 131.77 23.3887 131.436 23.8984C131.102 24.4082 130.935 25.2344 130.935 26.377V31H128.254V17.3242H130.935V20.1104C130.935 20.3271 130.914 20.8369 130.873 21.6396L130.812 22.4307H130.952C131.55 21.4697 132.499 20.9893 133.8 20.9893C134.954 20.9893 135.83 21.2998 136.428 21.9209C137.025 22.542 137.324 23.4326 137.324 24.5928V31Z" fill="#030030" fill-opacity="0.8"/>
<g clip-path="url(#clip0)">
<path d="M270.97 23.5866V21.4767H268.35V18.1969L268.262 18.2241L265.801 18.9769L265.753 18.9916V21.477H261.868V20.0927C261.868 19.4482 262.013 18.9546 262.297 18.6256C262.579 18.3005 262.982 18.1352 263.497 18.1352C263.867 18.1352 264.25 18.2224 264.636 18.3945L264.732 18.4373V16.2155L264.687 16.1988C264.327 16.0695 263.838 16.0043 263.232 16.0043C262.468 16.0043 261.773 16.1707 261.168 16.5002C260.562 16.8302 260.085 17.3013 259.751 17.9006C259.418 18.499 259.25 19.1902 259.25 19.9549V21.477H257.425V23.5868H259.25V32.475H261.868V23.5866H265.753V29.235C265.753 31.5614 266.85 32.7406 269.014 32.7406C269.37 32.7406 269.744 32.6986 270.126 32.617C270.515 32.5334 270.78 32.4497 270.936 32.3602L270.97 32.34V30.2105L270.864 30.2808C270.722 30.3759 270.545 30.4531 270.337 30.5105C270.129 30.5691 269.955 30.5986 269.82 30.5986C269.313 30.5986 268.938 30.462 268.705 30.1924C268.47 29.9206 268.35 29.4448 268.35 28.7791V23.5866H270.97ZM251.576 30.5991C250.626 30.5991 249.876 30.2836 249.348 29.6627C248.817 29.0386 248.548 28.1489 248.548 27.0185C248.548 25.8525 248.817 24.9396 249.348 24.3045C249.877 23.6735 250.619 23.3534 251.555 23.3534C252.463 23.3534 253.186 23.6592 253.704 24.2627C254.224 24.8698 254.488 25.7752 254.488 26.955C254.488 28.1491 254.24 29.0667 253.75 29.6803C253.264 30.2895 252.533 30.5991 251.576 30.5991ZM251.693 21.2119C249.879 21.2119 248.439 21.7432 247.412 22.7913C246.385 23.8397 245.865 25.29 245.865 27.1031C245.865 28.8251 246.373 30.2102 247.375 31.2192C248.377 32.2289 249.741 32.7403 251.428 32.7403C253.186 32.7403 254.598 32.2013 255.624 31.1388C256.651 30.0771 257.171 28.6404 257.171 26.8697C257.171 25.1208 256.683 23.7253 255.72 22.7229C254.757 21.7202 253.401 21.2119 251.693 21.2119ZM241.642 21.2119C240.409 21.2119 239.388 21.5273 238.609 22.1494C237.824 22.7752 237.427 23.5962 237.427 24.5895C237.427 25.1058 237.513 25.5645 237.682 25.9535C237.852 26.3438 238.115 26.6873 238.464 26.9759C238.811 27.2618 239.346 27.5616 240.056 27.8665C240.653 28.1119 241.097 28.3195 241.38 28.4831C241.656 28.6434 241.852 28.8047 241.963 28.9617C242.071 29.1152 242.125 29.3255 242.125 29.5852C242.125 30.3241 241.572 30.6834 240.433 30.6834C240.011 30.6834 239.529 30.5956 239.002 30.4216C238.478 30.2503 237.983 29.9995 237.535 29.678L237.427 29.6002V32.1216L237.466 32.1403C237.837 32.3114 238.304 32.4553 238.855 32.569C239.405 32.6827 239.904 32.7406 240.338 32.7406C241.677 32.7406 242.755 32.4234 243.541 31.7974C244.333 31.1674 244.734 30.3272 244.734 29.2992C244.734 28.5579 244.518 27.9223 244.092 27.4095C243.669 26.9009 242.936 26.434 241.912 26.0213C241.097 25.6941 240.574 25.4224 240.359 25.2138C240.151 25.0123 240.046 24.7275 240.046 24.3668C240.046 24.0469 240.176 23.7907 240.443 23.5831C240.713 23.3745 241.088 23.2683 241.558 23.2683C241.994 23.2683 242.441 23.3372 242.885 23.4722C243.328 23.6074 243.718 23.7884 244.043 24.0096L244.15 24.0827V21.6909L244.109 21.6731C243.809 21.5445 243.413 21.4345 242.933 21.345C242.454 21.2566 242.02 21.2119 241.642 21.2119ZM230.599 30.5988C229.649 30.5988 228.899 30.2836 228.371 29.6627C227.839 29.0386 227.57 28.1491 227.57 27.0185C227.57 25.8525 227.84 24.9396 228.371 24.3045C228.899 23.6735 229.642 23.3534 230.578 23.3534C231.486 23.3534 232.209 23.6592 232.726 24.2627C233.247 24.8698 233.511 25.7752 233.511 26.955C233.511 28.1491 233.263 29.0667 232.773 29.6803C232.287 30.2895 231.556 30.5991 230.599 30.5991V30.5988ZM230.716 21.2119C228.902 21.2119 227.461 21.7432 226.435 22.7913C225.408 23.8397 224.888 25.29 224.888 27.1031C224.888 28.8258 225.396 30.2102 226.398 31.2192C227.4 32.2289 228.763 32.7403 230.45 32.7403C232.208 32.7403 233.62 32.2013 234.647 31.1388C235.673 30.0771 236.194 28.6404 236.194 26.8697C236.194 25.1208 235.705 23.7253 234.742 22.7229C233.779 21.7202 232.424 21.2119 230.716 21.2119H230.716ZM220.912 23.3815V21.4767H218.325V32.475H220.912V26.8491C220.912 25.8923 221.129 25.1065 221.557 24.5128C221.979 23.9262 222.542 23.6292 223.23 23.6292C223.463 23.6292 223.725 23.6674 224.008 23.7436C224.288 23.8191 224.491 23.9011 224.611 23.9873L224.72 24.0661V21.458L224.678 21.4399C224.437 21.3375 224.096 21.2859 223.665 21.2859C223.015 21.2859 222.433 21.4948 221.935 21.9061C221.497 22.2675 221.181 22.7632 220.939 23.3815H220.912H220.912ZM213.692 21.2119C212.505 21.2119 211.446 21.4664 210.546 21.968C209.643 22.4707 208.946 23.1888 208.471 24.1017C207.998 25.0125 207.759 26.0761 207.759 27.2625C207.759 28.3015 207.991 29.2552 208.451 30.0956C208.911 30.9375 209.563 31.5961 210.387 32.0527C211.21 32.509 212.161 32.7406 213.215 32.7406C214.445 32.7406 215.494 32.4945 216.336 32.01L216.37 31.9903V29.6201L216.261 29.6995C215.874 29.9802 215.448 30.2023 214.996 30.3586C214.538 30.518 214.121 30.5988 213.756 30.5988C212.741 30.5988 211.926 30.281 211.334 29.655C210.741 29.0278 210.441 28.1475 210.441 27.0394C210.441 25.9245 210.754 25.0214 211.372 24.3548C211.988 23.6906 212.804 23.3536 213.799 23.3536C214.649 23.3536 215.477 23.6414 216.261 24.2102L216.37 24.289V21.7917L216.335 21.7718C216.04 21.6068 215.638 21.4704 215.138 21.367C214.641 21.2639 214.154 21.2119 213.692 21.2119H213.692ZM205.976 21.4767H203.389V32.475H205.977V21.477L205.976 21.4767ZM204.709 16.7916C204.284 16.7916 203.912 16.9364 203.607 17.2238C203.301 17.512 203.145 17.8746 203.145 18.3026C203.145 18.7238 203.299 19.0798 203.602 19.3601C203.904 19.6397 204.276 19.7815 204.709 19.7815C205.142 19.7815 205.516 19.6397 205.821 19.3606C206.128 19.0798 206.284 18.7238 206.284 18.3026C206.284 17.8894 206.133 17.5303 205.834 17.2352C205.536 16.9409 205.157 16.7916 204.709 16.7916ZM198.255 20.6653V32.475H200.895V17.1284H197.241L192.596 28.5272L188.088 17.1284H184.285V32.475H186.766V20.6641H186.852L191.611 32.4748H193.484L198.169 20.6653H198.254H198.255Z" fill="#706D6E"/>
<path d="M163.17 24.1704H151V12H163.17V24.1704Z" fill="#F1511B"/>
<path d="M176.608 24.1704H164.438V12H176.608V24.1704Z" fill="#80CC28"/>
<path d="M163.17 37.6125H151V25.4424H163.17V37.6125Z" fill="#00ADEF"/>
<path d="M176.608 37.6125H164.438V25.4424H176.608V37.6125Z" fill="#FBBC09"/>
</g>
<defs>
<filter id="filter0_d" x="0" y="0" width="308" height="58" filterUnits="userSpaceOnUse" color-interpolation-filters="sRGB">
<feFlood flood-opacity="0" result="BackgroundImageFix"/>
<feColorMatrix in="SourceAlpha" type="matrix" values="0 0 0 0 0 0 0 0 0 0 0 0 0 0 0 0 0 0 127 0"/>
<feOffset dy="4"/>
<feGaussianBlur stdDeviation="2"/>
<feColorMatrix type="matrix" values="0 0 0 0 0.0117647 0 0 0 0 0 0 0 0 0 0.188235 0 0 0 0.2 0"/>
<feBlend mode="normal" in2="BackgroundImageFix" result="effect1_dropShadow"/>
<feBlend mode="normal" in="SourceGraphic" in2="effect1_dropShadow" result="shape"/>
</filter>
<clipPath id="clip0">
<rect width="120" height="25.7812" fill="white" transform="translate(151 12)"/>
</clipPath>
</defs>
</svg>
