<svg width="12" height="16" viewBox="0 0 12 16" fill="none" xmlns="http://www.w3.org/2000/svg">
<path d="M3.42857 4.625V3.375C3.42857 3.16875 3.57321 3 3.75 3H4.82143C4.99821 3 5.14286 3.16875 5.14286 3.375V4.625C5.14286 4.83125 4.99821 5 4.82143 5H3.75C3.57321 5 3.42857 4.83125 3.42857 4.625ZM7.17857 5H8.25C8.42679 5 8.57143 4.83125 8.57143 4.625V3.375C8.57143 3.16875 8.42679 3 8.25 3H7.17857C7.00179 3 6.85714 3.16875 6.85714 3.375V4.625C6.85714 4.83125 7.00179 5 7.17857 5ZM3.75 8H4.82143C4.99821 8 5.14286 7.83125 5.14286 7.625V6.375C5.14286 6.16875 4.99821 6 4.82143 6H3.75C3.57321 6 3.42857 6.16875 3.42857 6.375V7.625C3.42857 7.83125 3.57321 8 3.75 8ZM7.17857 8H8.25C8.42679 8 8.57143 7.83125 8.57143 7.625V6.375C8.57143 6.16875 8.42679 6 8.25 6H7.17857C7.00179 6 6.85714 6.16875 6.85714 6.375V7.625C6.85714 7.83125 7.00179 8 7.17857 8ZM5.14286 10.625V9.375C5.14286 9.16875 4.99821 9 4.82143 9H3.75C3.57321 9 3.42857 9.16875 3.42857 9.375V10.625C3.42857 10.8313 3.57321 11 3.75 11H4.82143C4.99821 11 5.14286 10.8313 5.14286 10.625ZM7.17857 11H8.25C8.42679 11 8.57143 10.8313 8.57143 10.625V9.375C8.57143 9.16875 8.42679 9 8.25 9H7.17857C7.00179 9 6.85714 9.16875 6.85714 9.375V10.625C6.85714 10.8313 7.00179 11 7.17857 11ZM12 14.875V16H0V14.875C0 14.6687 0.144643 14.5 0.321429 14.5H0.84375V0.75C0.84375 0.334375 1.13036 0 1.48661 0H10.5134C10.8696 0 11.1562 0.334375 11.1562 0.75V14.5H11.6786C11.8554 14.5 12 14.6687 12 14.875ZM2.12946 14.4688H5.14286V12.375C5.14286 12.1687 5.2875 12 5.46429 12H6.53571C6.7125 12 6.85714 12.1687 6.85714 12.375V14.4688H9.87054V1.53125L2.14286 1.5L2.12946 14.4688Z" fill="#030030" fill-opacity="0.8"/>
</svg>
