<svg width="15" height="14" viewBox="0 0 15 14" fill="none" xmlns="http://www.w3.org/2000/svg">
<path d="M15 14H14V12.5C14 12.1022 13.842 11.7206 13.5607 11.4393C13.2794 11.158 12.8978 11 12.5 11H10.5C10.1022 11 9.72064 11.158 9.43934 11.4393C9.15804 11.7206 9 12.1022 9 12.5V14H8V12.5C8 11.837 8.26339 11.2011 8.73223 10.7322C9.20107 10.2634 9.83696 10 10.5 10H12.5C13.163 10 13.7989 10.2634 14.2678 10.7322C14.7366 11.2011 15 11.837 15 12.5V14Z" fill="#030030" fill-opacity="0.8"/>
<path d="M11.5 5C11.7967 5 12.0867 5.08797 12.3334 5.2528C12.58 5.41762 12.7723 5.65189 12.8858 5.92597C12.9994 6.20006 13.0291 6.50166 12.9712 6.79264C12.9133 7.08361 12.7704 7.35088 12.5607 7.56066C12.3509 7.77044 12.0836 7.9133 11.7926 7.97118C11.5017 8.02906 11.2001 7.99935 10.926 7.88582C10.6519 7.77229 10.4176 7.58003 10.2528 7.33335C10.088 7.08668 10 6.79667 10 6.5C10 6.10218 10.158 5.72064 10.4393 5.43934C10.7206 5.15804 11.1022 5 11.5 5ZM11.5 4C11.0055 4 10.5222 4.14662 10.1111 4.42133C9.69995 4.69603 9.37952 5.08648 9.1903 5.54329C9.00108 6.00011 8.95157 6.50277 9.04804 6.98773C9.1445 7.47268 9.3826 7.91814 9.73223 8.26777C10.0819 8.6174 10.5273 8.8555 11.0123 8.95196C11.4972 9.04843 11.9999 8.99892 12.4567 8.8097C12.9135 8.62048 13.304 8.30005 13.5787 7.88893C13.8534 7.4778 14 6.99445 14 6.5C14 5.83696 13.7366 5.20107 13.2678 4.73223C12.7989 4.26339 12.163 4 11.5 4Z" fill="#030030" fill-opacity="0.8"/>
<path d="M7 10H6V8.5C6 8.10218 5.84196 7.72064 5.56066 7.43934C5.27936 7.15804 4.89782 7 4.5 7H2.5C2.10218 7 1.72064 7.15804 1.43934 7.43934C1.15804 7.72064 1 8.10218 1 8.5V10H0V8.5C0 7.83696 0.263392 7.20107 0.732233 6.73223C1.20107 6.26339 1.83696 6 2.5 6H4.5C5.16304 6 5.79893 6.26339 6.26777 6.73223C6.73661 7.20107 7 7.83696 7 8.5V10Z" fill="#030030" fill-opacity="0.8"/>
<path d="M3.5 1C3.79667 1 4.08668 1.08797 4.33336 1.2528C4.58003 1.41762 4.77229 1.65189 4.88582 1.92597C4.99935 2.20006 5.02906 2.50166 4.97118 2.79264C4.9133 3.08361 4.77044 3.35088 4.56066 3.56066C4.35088 3.77044 4.08361 3.9133 3.79264 3.97118C3.50167 4.02906 3.20007 3.99935 2.92598 3.88582C2.65189 3.77229 2.41762 3.58003 2.2528 3.33336C2.08797 3.08668 2 2.79667 2 2.5C2 2.10218 2.15804 1.72064 2.43934 1.43934C2.72065 1.15804 3.10218 1 3.5 1ZM3.5 0C3.00555 0 2.5222 0.146622 2.11108 0.421326C1.69995 0.696029 1.37952 1.08648 1.1903 1.54329C1.00108 2.00011 0.951575 2.50277 1.04804 2.98773C1.1445 3.47268 1.3826 3.91814 1.73223 4.26777C2.08187 4.6174 2.52732 4.8555 3.01228 4.95196C3.49723 5.04843 3.99989 4.99892 4.45671 4.8097C4.91352 4.62048 5.30397 4.30005 5.57867 3.88893C5.85338 3.4778 6 2.99445 6 2.5C6 1.83696 5.73661 1.20107 5.26777 0.732233C4.79893 0.263392 4.16304 0 3.5 0Z" fill="#030030" fill-opacity="0.8"/>
</svg>
